<?xml version="1.0" encoding="UTF-8" standalone="no"?>
<!DOCTYPE svg PUBLIC "-//W3C//DTD SVG 1.1//EN" "http://www.w3.org/Graphics/SVG/1.1/DTD/svg11.dtd">
<svg xmlns="http://www.w3.org/2000/svg" version="1.1" viewBox="0.00 0.00 1254.00 1254.00">
<g stroke-width="2.00" fill="none" stroke-linecap="butt">
<path stroke="#0c0c0d" vector-effect="non-scaling-stroke" d="
  M 277.66 1000.07
  Q 315.75 1034.78 365.80 1047.68
  Q 368.26 1048.31 380.42 1050.81
  Q 387.64 1052.30 394.42 1052.94
  Q 407.11 1054.16 408.54 1054.19
  Q 433.80 1054.85 460.41 1054.44
  C 466.45 1054.35 475.09 1054.88 479.75 1054.84
  Q 526.03 1054.49 580.42 1054.72
  C 594.94 1054.79 608.87 1054.44 624.73 1054.49
  Q 667.74 1054.63 685.09 1054.72
  C 705.39 1054.82 730.90 1054.52 754.75 1054.69
  Q 792.82 1054.96 817.48 1054.18
  Q 823.30 1053.99 823.49 1054.00
  Q 832.40 1054.37 841.70 1054.36
  C 847.98 1054.35 854.39 1053.36 860.09 1052.91
  Q 865.54 1052.47 873.81 1051.05
  Q 927.39 1041.84 969.30 1007.31
  Q 1000.86 981.30 1019.80 946.23
  C 1035.05 917.98 1043.64 885.28 1044.64 853.49
  Q 1045.68 820.55 1044.97 750.37
  C 1044.81 734.44 1045.18 718.60 1045.12 702.29
  C 1045.08 690.71 1044.63 679.80 1044.85 669.15
  Q 1045.05 659.10 1045.05 646.35
  Q 1045.07 546.76 1045.00 416.35
  C 1045.00 408.13 1044.74 398.50 1044.25 391.00
  Q 1042.45 363.81 1034.35 339.63
  C 1017.30 288.75 981.86 246.40 934.75 221.84
  Q 900.50 204.00 860.25 199.96
  C 852.76 199.21 841.61 198.77 832.57 198.77
  Q 478.38 198.77 418.25 198.72
  Q 407.03 198.72 393.84 200.10
  Q 334.67 206.31 289.07 242.28
  Q 263.10 262.76 245.61 288.60
  C 226.07 317.49 213.97 351.39 210.92 386.83
  Q 209.85 399.32 209.84 408.51
  Q 209.72 573.81 209.92 845.24
  C 209.94 886.20 222.06 928.79 245.40 962.41
  Q 255.34 976.73 260.09 982.18
  Q 267.97 991.23 277.66 1000.07"
/>
<path stroke="#0c0c0d" vector-effect="non-scaling-stroke" d="
  M 729.09 502.61
  Q 729.15 502.80 729.51 502.86
  A 0.73 0.68 -51.0 0 0 729.94 502.80
  Q 732.97 501.46 734.69 500.17
  C 755.62 484.54 772.16 462.66 782.99 439.00
  Q 784.55 435.59 788.15 425.61
  Q 790.74 418.42 790.40 413.34"
/>
<path stroke="#83817f" vector-effect="non-scaling-stroke" d="
  M 790.40 413.34
  Q 790.99 409.05 791.74 404.52
  C 793.58 393.31 786.58 383.10 774.45 383.09
  Q 644.57 382.98 618.76 383.18
  Q 584.75 383.44 554.58 395.82
  C 511.93 413.31 479.48 449.73 466.48 493.86
  C 450.78 547.16 466.93 603.75 505.45 642.41
  C 517.41 654.42 531.63 664.08 546.43 671.80
  A 0.36 0.36 0.0 0 0 546.92 671.31
  C 539.06 656.51 533.14 639.14 532.38 623.02
  C 529.94 571.17 569.00 527.91 622.00 528.13
  Q 637.22 528.20 649.50 527.97
  Q 693.13 527.14 729.09 502.61"
/>
<path stroke="#777572" vector-effect="non-scaling-stroke" d="
  M 790.40 413.34
  Q 775.75 469.44 729.09 502.61"
/>
<path stroke="#83817f" vector-effect="non-scaling-stroke" d="
  M 621.37 581.38
  Q 621.37 581.40 621.36 581.44
  A 0.16 0.10 -68.6 0 0 621.38 581.55
  Q 635.24 600.81 649.57 621.28
  C 652.29 625.17 654.92 628.69 656.64 632.89
  C 667.68 659.91 655.90 685.25 631.38 698.94
  Q 625.72 702.11 610.45 706.75
  C 571.00 718.74 534.32 735.88 504.71 765.21
  C 486.42 783.34 471.14 807.91 465.36 833.09
  Q 464.03 838.91 464.40 841.97
  C 465.26 848.86 469.35 854.48 475.80 856.55
  Q 478.55 857.43 486.08 857.43
  Q 625.31 857.41 647.50 857.29
  C 681.87 857.12 714.51 845.72 740.43 823.01
  Q 766.95 799.77 778.39 766.43
  Q 789.06 735.31 782.01 702.72
  C 776.17 675.73 759.95 651.89 737.37 636.29
  C 727.72 629.62 717.68 625.26 705.54 619.71
  Q 659.79 598.82 621.82 581.16
  A 0.32 0.32 0.0 0 0 621.37 581.38"
/>
</g>
<path fill="#000000" d="
  M 1254.00 0.00
  L 1254.00 1254.00
  L 0.00 1254.00
  L 0.00 0.00
  L 1254.00 0.00
  Z
  M 277.66 1000.07
  Q 315.75 1034.78 365.80 1047.68
  Q 368.26 1048.31 380.42 1050.81
  Q 387.64 1052.30 394.42 1052.94
  Q 407.11 1054.16 408.54 1054.19
  Q 433.80 1054.85 460.41 1054.44
  C 466.45 1054.35 475.09 1054.88 479.75 1054.84
  Q 526.03 1054.49 580.42 1054.72
  C 594.94 1054.79 608.87 1054.44 624.73 1054.49
  Q 667.74 1054.63 685.09 1054.72
  C 705.39 1054.82 730.90 1054.52 754.75 1054.69
  Q 792.82 1054.96 817.48 1054.18
  Q 823.30 1053.99 823.49 1054.00
  Q 832.40 1054.37 841.70 1054.36
  C 847.98 1054.35 854.39 1053.36 860.09 1052.91
  Q 865.54 1052.47 873.81 1051.05
  Q 927.39 1041.84 969.30 1007.31
  Q 1000.86 981.30 1019.80 946.23
  C 1035.05 917.98 1043.64 885.28 1044.64 853.49
  Q 1045.68 820.55 1044.97 750.37
  C 1044.81 734.44 1045.18 718.60 1045.12 702.29
  C 1045.08 690.71 1044.63 679.80 1044.85 669.15
  Q 1045.05 659.10 1045.05 646.35
  Q 1045.07 546.76 1045.00 416.35
  C 1045.00 408.13 1044.74 398.50 1044.25 391.00
  Q 1042.45 363.81 1034.35 339.63
  C 1017.30 288.75 981.86 246.40 934.75 221.84
  Q 900.50 204.00 860.25 199.96
  C 852.76 199.21 841.61 198.77 832.57 198.77
  Q 478.38 198.77 418.25 198.72
  Q 407.03 198.72 393.84 200.10
  Q 334.67 206.31 289.07 242.28
  Q 263.10 262.76 245.61 288.60
  C 226.07 317.49 213.97 351.39 210.92 386.83
  Q 209.85 399.32 209.84 408.51
  Q 209.72 573.81 209.92 845.24
  C 209.94 886.20 222.06 928.79 245.40 962.41
  Q 255.34 976.73 260.09 982.18
  Q 267.97 991.23 277.66 1000.07
  Z"
/>
<path fill="#181819" d="
  M 277.66 1000.07
  Q 267.97 991.23 260.09 982.18
  Q 255.34 976.73 245.40 962.41
  C 222.06 928.79 209.94 886.20 209.92 845.24
  Q 209.72 573.81 209.84 408.51
  Q 209.85 399.32 210.92 386.83
  C 213.97 351.39 226.07 317.49 245.61 288.60
  Q 263.10 262.76 289.07 242.28
  Q 334.67 206.31 393.84 200.10
  Q 407.03 198.72 418.25 198.72
  Q 478.38 198.77 832.57 198.77
  C 841.61 198.77 852.76 199.21 860.25 199.96
  Q 900.50 204.00 934.75 221.84
  C 981.86 246.40 1017.30 288.75 1034.35 339.63
  Q 1042.45 363.81 1044.25 391.00
  C 1044.74 398.50 1045.00 408.13 1045.00 416.35
  Q 1045.07 546.76 1045.05 646.35
  Q 1045.05 659.10 1044.85 669.15
  C 1044.63 679.80 1045.08 690.71 1045.12 702.29
  C 1045.18 718.60 1044.81 734.44 1044.97 750.37
  Q 1045.68 820.55 1044.64 853.49
  C 1043.64 885.28 1035.05 917.98 1019.80 946.23
  Q 1000.86 981.30 969.30 1007.31
  Q 927.39 1041.84 873.81 1051.05
  Q 865.54 1052.47 860.09 1052.91
  C 854.39 1053.36 847.98 1054.35 841.70 1054.36
  Q 832.40 1054.37 823.49 1054.00
  Q 823.30 1053.99 817.48 1054.18
  Q 792.82 1054.96 754.75 1054.69
  C 730.90 1054.52 705.39 1054.82 685.09 1054.72
  Q 667.74 1054.63 624.73 1054.49
  C 608.87 1054.44 594.94 1054.79 580.42 1054.72
  Q 526.03 1054.49 479.75 1054.84
  C 475.09 1054.88 466.45 1054.35 460.41 1054.44
  Q 433.80 1054.85 408.54 1054.19
  Q 407.11 1054.16 394.42 1052.94
  Q 387.64 1052.30 380.42 1050.81
  Q 368.26 1048.31 365.80 1047.68
  Q 315.75 1034.78 277.66 1000.07
  Z
  M 729.09 502.61
  Q 729.15 502.80 729.51 502.86
  A 0.73 0.68 -51.0 0 0 729.94 502.80
  Q 732.97 501.46 734.69 500.17
  C 755.62 484.54 772.16 462.66 782.99 439.00
  Q 784.55 435.59 788.15 425.61
  Q 790.74 418.42 790.40 413.34
  Q 790.99 409.05 791.74 404.52
  C 793.58 393.31 786.58 383.10 774.45 383.09
  Q 644.57 382.98 618.76 383.18
  Q 584.75 383.44 554.58 395.82
  C 511.93 413.31 479.48 449.73 466.48 493.86
  C 450.78 547.16 466.93 603.75 505.45 642.41
  C 517.41 654.42 531.63 664.08 546.43 671.80
  A 0.36 0.36 0.0 0 0 546.92 671.31
  C 539.06 656.51 533.14 639.14 532.38 623.02
  C 529.94 571.17 569.00 527.91 622.00 528.13
  Q 637.22 528.20 649.50 527.97
  Q 693.13 527.14 729.09 502.61
  Z
  M 621.37 581.38
  Q 621.37 581.40 621.36 581.44
  A 0.16 0.10 -68.6 0 0 621.38 581.55
  Q 635.24 600.81 649.57 621.28
  C 652.29 625.17 654.92 628.69 656.64 632.89
  C 667.68 659.91 655.90 685.25 631.38 698.94
  Q 625.72 702.11 610.45 706.75
  C 571.00 718.74 534.32 735.88 504.71 765.21
  C 486.42 783.34 471.14 807.91 465.36 833.09
  Q 464.03 838.91 464.40 841.97
  C 465.26 848.86 469.35 854.48 475.80 856.55
  Q 478.55 857.43 486.08 857.43
  Q 625.31 857.41 647.50 857.29
  C 681.87 857.12 714.51 845.72 740.43 823.01
  Q 766.95 799.77 778.39 766.43
  Q 789.06 735.31 782.01 702.72
  C 776.17 675.73 759.95 651.89 737.37 636.29
  C 727.72 629.62 717.68 625.26 705.54 619.71
  Q 659.79 598.82 621.82 581.16
  A 0.32 0.32 0.0 0 0 621.37 581.38
  Z"
/>
<path fill="#ede9e4" d="
  M 790.40 413.34
  Q 775.75 469.44 729.09 502.61
  Q 693.13 527.14 649.50 527.97
  Q 637.22 528.20 622.00 528.13
  C 569.00 527.91 529.94 571.17 532.38 623.02
  C 533.14 639.14 539.06 656.51 546.92 671.31
  A 0.36 0.36 0.0 0 1 546.43 671.80
  C 531.63 664.08 517.41 654.42 505.45 642.41
  C 466.93 603.75 450.78 547.16 466.48 493.86
  C 479.48 449.73 511.93 413.31 554.58 395.82
  Q 584.75 383.44 618.76 383.18
  Q 644.57 382.98 774.45 383.09
  C 786.58 383.10 793.58 393.31 791.74 404.52
  Q 790.99 409.05 790.40 413.34
  Z"
/>
<path fill="#000000" d="
  M 790.40 413.34
  Q 790.74 418.42 788.15 425.61
  Q 784.55 435.59 782.99 439.00
  C 772.16 462.66 755.62 484.54 734.69 500.17
  Q 732.97 501.46 729.94 502.80
  A 0.73 0.68 -51.0 0 1 729.51 502.86
  Q 729.15 502.80 729.09 502.61
  Q 775.75 469.44 790.40 413.34
  Z"
/>
<path fill="#ede9e4" d="
  M 621.37 581.38
  A 0.32 0.32 0.0 0 1 621.82 581.16
  Q 659.79 598.82 705.54 619.71
  C 717.68 625.26 727.72 629.62 737.37 636.29
  C 759.95 651.89 776.17 675.73 782.01 702.72
  Q 789.06 735.31 778.39 766.43
  Q 766.95 799.77 740.43 823.01
  C 714.51 845.72 681.87 857.12 647.50 857.29
  Q 625.31 857.41 486.08 857.43
  Q 478.55 857.43 475.80 856.55
  C 469.35 854.48 465.26 848.86 464.40 841.97
  Q 464.03 838.91 465.36 833.09
  C 471.14 807.91 486.42 783.34 504.71 765.21
  C 534.32 735.88 571.00 718.74 610.45 706.75
  Q 625.72 702.11 631.38 698.94
  C 655.90 685.25 667.68 659.91 656.64 632.89
  C 654.92 628.69 652.29 625.17 649.57 621.28
  Q 635.24 600.81 621.38 581.55
  A 0.16 0.10 -68.6 0 1 621.36 581.44
  Q 621.37 581.40 621.37 581.38
  Z"
/>
</svg>
