<svg version="1.1" xmlns="http://www.w3.org/2000/svg" viewBox="0 0 1254 1254">
<!-- Soniq app icon: FULL-BLEED grey + centred S. No own rounding / no
     transparent margin: macOS (Tahoe) masks the square to its rounded
     icon shape; full-bleed art means no white/black plate shows around it.
     Built from assets/raw.svg (background + inset squircle dropped). -->
  <rect x="0" y="0" width="1254" height="1254" fill="#1c1c1f"/>
  <g transform="translate(627.0,627.0) scale(1.5) translate(-627.0,-627.0)">
  <path fill="#ede9e4" d="
  M 790.40 413.34
  Q 775.75 469.44 729.09 502.61
  Q 693.13 527.14 649.50 527.97
  Q 637.22 528.20 622.00 528.13
  C 569.00 527.91 529.94 571.17 532.38 623.02
  C 533.14 639.14 539.06 656.51 546.92 671.31
  A 0.36 0.36 0.0 0 1 546.43 671.80
  C 531.63 664.08 517.41 654.42 505.45 642.41
  C 466.93 603.75 450.78 547.16 466.48 493.86
  C 479.48 449.73 511.93 413.31 554.58 395.82
  Q 584.75 383.44 618.76 383.18
  Q 644.57 382.98 774.45 383.09
  C 786.58 383.10 793.58 393.31 791.74 404.52
  Q 790.99 409.05 790.40 413.34
  Z"/>
  <path fill="#000000" d="
  M 790.40 413.34
  Q 790.74 418.42 788.15 425.61
  Q 784.55 435.59 782.99 439.00
  C 772.16 462.66 755.62 484.54 734.69 500.17
  Q 732.97 501.46 729.94 502.80
  A 0.73 0.68 -51.0 0 1 729.51 502.86
  Q 729.15 502.80 729.09 502.61
  Q 775.75 469.44 790.40 413.34
  Z"/>
  <path fill="#ede9e4" d="
  M 621.37 581.38
  A 0.32 0.32 0.0 0 1 621.82 581.16
  Q 659.79 598.82 705.54 619.71
  C 717.68 625.26 727.72 629.62 737.37 636.29
  C 759.95 651.89 776.17 675.73 782.01 702.72
  Q 789.06 735.31 778.39 766.43
  Q 766.95 799.77 740.43 823.01
  C 714.51 845.72 681.87 857.12 647.50 857.29
  Q 625.31 857.41 486.08 857.43
  Q 478.55 857.43 475.80 856.55
  C 469.35 854.48 465.26 848.86 464.40 841.97
  Q 464.03 838.91 465.36 833.09
  C 471.14 807.91 486.42 783.34 504.71 765.21
  C 534.32 735.88 571.00 718.74 610.45 706.75
  Q 625.72 702.11 631.38 698.94
  C 655.90 685.25 667.68 659.91 656.64 632.89
  C 654.92 628.69 652.29 625.17 649.57 621.28
  Q 635.24 600.81 621.38 581.55
  A 0.16 0.10 -68.6 0 1 621.36 581.44
  Q 621.37 581.40 621.37 581.38
  Z"/>
  </g>
</svg>
