<svg version="1.2" xmlns="http://www.w3.org/2000/svg" viewBox="209.79502958579877 198.72 835.4629914529914 856.1219727237478" width="837" height="857">
	<style>
		.s0 { fill: none;stroke: #0c0c0d;stroke-width: 2 } 
		.s1 { fill: none;stroke: #83817f;stroke-width: 2 } 
		.s2 { fill: none;stroke: #777572;stroke-width: 2 } 
		.s3 { fill: #181819 } 
		.s4 { fill: #ede9e4 } 
		.s5 { fill: #000000 } 
	</style>
	<g id="Layer 1">
		<g>
			<path class="s0" d="m277.66 1000.07q38.09 34.71 88.14 47.61 2.46 0.63 14.62 3.13 7.22 1.49 14 2.13 12.69 1.22 14.12 1.25 25.26 0.66 51.87 0.25c6.04-0.09 14.68 0.44 19.34 0.4q46.28-0.35 100.67-0.12c14.52 0.07 28.45-0.28 44.31-0.23q43.01 0.14 60.36 0.23c20.3 0.1 45.81-0.2 69.66-0.03q38.07 0.27 62.73-0.51 5.82-0.19 6.01-0.18 8.91 0.37 18.21 0.36c6.28-0.01 12.69-1 18.39-1.45q5.45-0.44 13.72-1.86 53.58-9.21 95.49-43.74 31.56-26.01 50.5-61.08c15.25-28.25 23.84-60.95 24.84-92.74q1.04-32.94 0.33-103.12c-0.16-15.93 0.21-31.77 0.15-48.08-0.04-11.58-0.49-22.49-0.27-33.14q0.2-10.05 0.2-22.8 0.02-99.59-0.05-230c0-8.22-0.26-17.85-0.75-25.35q-1.8-27.19-9.9-51.37c-17.05-50.88-52.49-93.23-99.6-117.79q-34.25-17.84-74.5-21.88c-7.49-0.75-18.64-1.19-27.68-1.19q-354.19 0-414.32-0.05-11.22 0-24.41 1.38-59.17 6.21-104.77 42.18-25.97 20.48-43.46 46.32c-19.54 28.89-31.64 62.79-34.69 98.23q-1.07 12.49-1.08 21.68-0.12 165.3 0.08 436.73c0.02 40.96 12.14 83.55 35.48 117.17q9.94 14.32 14.69 19.77 7.88 9.05 17.57 17.89z"/>
			<path class="s0" d="m729.09 502.61q0.06 0.19 0.42 0.25 0.05 0.01 0.11 0.01 0.05 0 0.11-0.01 0.05 0 0.11-0.02 0.05-0.02 0.1-0.04 3.03-1.34 4.75-2.63c20.93-15.63 37.47-37.51 48.3-61.17q1.56-3.41 5.16-13.39 2.59-7.19 2.25-12.27"/>
			<path class="s1" d="m790.4 413.34q0.59-4.29 1.34-8.82c1.84-11.21-5.16-21.42-17.29-21.43q-129.88-0.11-155.69 0.09-34.01 0.26-64.18 12.64c-42.65 17.49-75.1 53.91-88.1 98.04-15.7 53.3 0.45 109.89 38.97 148.55 11.96 12.01 26.18 21.67 40.98 29.39q0.11 0.06 0.23 0.04 0.11-0.01 0.2-0.1 0.09-0.09 0.1-0.2 0.02-0.12-0.04-0.23c-7.86-14.8-13.78-32.17-14.54-48.29-2.44-51.85 36.62-95.11 89.62-94.89q15.22 0.07 27.5-0.16 43.63-0.83 79.59-25.36"/>
			<path class="s2" d="m790.4 413.34q-14.65 56.1-61.31 89.27"/>
			<path class="s1" d="m621.37 581.38q0 0.02-0.01 0.06 0 0.02 0 0.03 0 0.02 0 0.03 0 0.02 0.01 0.03 0 0.01 0.01 0.02 13.86 19.26 28.19 39.73c2.72 3.89 5.35 7.41 7.07 11.61 11.04 27.02-0.74 52.36-25.26 66.05q-5.66 3.17-20.93 7.81c-39.45 11.99-76.13 29.13-105.74 58.46-18.29 18.13-33.57 42.7-39.35 67.88q-1.33 5.82-0.96 8.88c0.86 6.89 4.95 12.51 11.4 14.58q2.75 0.88 10.28 0.88 139.23-0.02 161.42-0.14c34.37-0.17 67.01-11.57 92.93-34.28q26.52-23.24 37.96-56.58 10.67-31.12 3.62-63.71c-5.84-26.99-22.06-50.83-44.64-66.43-9.65-6.67-19.69-11.03-31.83-16.58q-45.75-20.89-83.72-38.55-0.07-0.03-0.14-0.03-0.07 0-0.14 0.03-0.06 0.03-0.11 0.09-0.04 0.06-0.06 0.13z"/>
		</g>
		<path class="s3" d="m277.66 1000.07q-9.69-8.84-17.57-17.89-4.75-5.45-14.69-19.77c-23.34-33.62-35.46-76.21-35.48-117.17q-0.2-271.43-0.08-436.73 0.01-9.19 1.08-21.68c3.05-35.44 15.15-69.34 34.69-98.23q17.49-25.84 43.46-46.32 45.6-35.97 104.77-42.18 13.19-1.38 24.41-1.38 60.13 0.05 414.32 0.05c9.04 0 20.19 0.44 27.68 1.19q40.25 4.04 74.5 21.88c47.11 24.56 82.55 66.91 99.6 117.79q8.1 24.18 9.9 51.37c0.49 7.5 0.75 17.13 0.75 25.35q0.07 130.41 0.05 230 0 12.75-0.2 22.8c-0.22 10.65 0.23 21.56 0.27 33.14 0.06 16.31-0.31 32.15-0.15 48.08q0.71 70.18-0.33 103.12c-1 31.79-9.59 64.49-24.84 92.74q-18.94 35.07-50.5 61.08-41.91 34.53-95.49 43.74-8.27 1.42-13.72 1.86c-5.7 0.45-12.11 1.44-18.39 1.45q-9.3 0.01-18.21-0.36-0.19-0.01-6.01 0.18-24.66 0.78-62.73 0.51c-23.85-0.17-49.36 0.13-69.66 0.03q-17.35-0.09-60.36-0.23c-15.86-0.05-29.79 0.3-44.31 0.23q-54.39-0.23-100.67 0.12c-4.66 0.04-13.3-0.49-19.34-0.4q-26.61 0.41-51.87-0.25-1.43-0.03-14.12-1.25-6.78-0.64-14-2.13-12.16-2.5-14.62-3.13-50.05-12.9-88.14-47.61zm451.43-497.46q0.06 0.19 0.42 0.25 0.05 0.01 0.11 0.01 0.05 0 0.11-0.01 0.05 0 0.11-0.02 0.05-0.02 0.1-0.04 3.03-1.34 4.75-2.63c20.93-15.63 37.47-37.51 48.3-61.17q1.56-3.41 5.16-13.39 2.59-7.19 2.25-12.27 0.59-4.29 1.34-8.82c1.84-11.21-5.16-21.42-17.29-21.43q-129.88-0.11-155.69 0.09-34.01 0.26-64.18 12.64c-42.65 17.49-75.1 53.91-88.1 98.04-15.7 53.3 0.45 109.89 38.97 148.55 11.96 12.01 26.18 21.67 40.98 29.39q0.11 0.06 0.23 0.04 0.11-0.01 0.2-0.1 0.09-0.09 0.1-0.2 0.02-0.12-0.04-0.23c-7.86-14.8-13.78-32.17-14.54-48.29-2.44-51.85 36.62-95.11 89.62-94.89q15.22 0.07 27.5-0.16 43.63-0.83 79.59-25.36zm-107.72 78.77q0 0.02-0.01 0.06 0 0.02 0 0.03 0 0.02 0 0.03 0 0.02 0.01 0.03 0 0.01 0.01 0.02 13.86 19.26 28.19 39.73c2.72 3.89 5.35 7.41 7.07 11.61 11.04 27.02-0.74 52.36-25.26 66.05q-5.66 3.17-20.93 7.81c-39.45 11.99-76.13 29.13-105.74 58.46-18.29 18.13-33.57 42.7-39.35 67.88q-1.33 5.82-0.96 8.88c0.86 6.89 4.95 12.51 11.4 14.58q2.75 0.88 10.28 0.88 139.23-0.02 161.42-0.14c34.37-0.17 67.01-11.57 92.93-34.28q26.52-23.24 37.96-56.58 10.67-31.12 3.62-63.71c-5.84-26.99-22.06-50.83-44.64-66.43-9.65-6.67-19.69-11.03-31.83-16.58q-45.75-20.89-83.72-38.55-0.07-0.03-0.14-0.03-0.07 0-0.14 0.03-0.06 0.03-0.11 0.09-0.04 0.06-0.06 0.13z"/>
		<path class="s4" d="m790.4 413.34q-14.65 56.1-61.31 89.27-35.96 24.53-79.59 25.36-12.28 0.23-27.5 0.16c-53-0.22-92.06 43.04-89.62 94.89 0.76 16.12 6.68 33.49 14.54 48.29q0.06 0.11 0.04 0.23-0.01 0.11-0.1 0.2-0.09 0.09-0.2 0.1-0.12 0.02-0.23-0.04c-14.8-7.72-29.02-17.38-40.98-29.39-38.52-38.66-54.67-95.25-38.97-148.55 13-44.13 45.45-80.55 88.1-98.04q30.17-12.38 64.18-12.64 25.81-0.2 155.69-0.09c12.13 0.01 19.13 10.22 17.29 21.43q-0.75 4.53-1.34 8.82z"/>
		<path class="s5" d="m790.4 413.34q0.34 5.08-2.25 12.27-3.6 9.98-5.16 13.39c-10.83 23.66-27.37 45.54-48.3 61.17q-1.72 1.29-4.75 2.63-0.05 0.02-0.1 0.04-0.06 0.02-0.11 0.02-0.06 0.01-0.11 0.01-0.06 0-0.11-0.01-0.36-0.06-0.42-0.25 46.66-33.17 61.31-89.27z"/>
		<path class="s4" d="m621.37 581.38q0.02-0.07 0.06-0.13 0.05-0.06 0.11-0.09 0.07-0.03 0.14-0.03 0.07 0 0.14 0.03 37.97 17.66 83.72 38.55c12.14 5.55 22.18 9.91 31.83 16.58 22.58 15.6 38.8 39.44 44.64 66.43q7.05 32.59-3.62 63.71-11.44 33.34-37.96 56.58c-25.92 22.71-58.56 34.11-92.93 34.28q-22.19 0.12-161.42 0.14-7.53 0-10.28-0.88c-6.45-2.07-10.54-7.69-11.4-14.58q-0.37-3.06 0.96-8.88c5.78-25.18 21.06-49.75 39.35-67.88 29.61-29.33 66.29-46.47 105.74-58.46q15.27-4.64 20.93-7.81c24.52-13.69 36.3-39.03 25.26-66.05-1.72-4.2-4.35-7.72-7.07-11.61q-14.33-20.47-28.19-39.73-0.01-0.01-0.01-0.02-0.01-0.01-0.01-0.03 0-0.01 0-0.03 0-0.01 0-0.03 0.01-0.04 0.01-0.06z"/>
	</g>
</svg>