<svg version="1.2" xmlns="http://www.w3.org/2000/svg" viewBox="460.52531431750367 383.05097304404995 331.5058679343887 474.37902695595" width="333" height="475">
	<style>
		.s0 { fill: #ffffff } 
	</style>
	<g id="Layer 1">
		<g>
		</g>
		<path class="s0" d="m790.4 413.34q-14.65 56.1-61.31 89.27-35.96 24.53-79.59 25.36-12.28 0.23-27.5 0.16c-53-0.22-92.06 43.04-89.62 94.89 0.76 16.12 6.68 33.49 14.54 48.29q0.06 0.11 0.04 0.23-0.01 0.11-0.1 0.2-0.09 0.09-0.2 0.1-0.12 0.02-0.23-0.04c-14.8-7.72-29.02-17.38-40.98-29.39-38.52-38.66-54.67-95.25-38.97-148.55 13-44.13 45.45-80.55 88.1-98.04q30.17-12.38 64.18-12.64 25.81-0.2 155.69-0.09c12.13 0.01 19.13 10.22 17.29 21.43q-0.75 4.53-1.34 8.82z"/>
		<path class="s0" d="m621.37 581.38q0.02-0.07 0.06-0.13 0.05-0.06 0.11-0.09 0.07-0.03 0.14-0.03 0.07 0 0.14 0.03 37.97 17.66 83.72 38.55c12.14 5.55 22.18 9.91 31.83 16.58 22.58 15.6 38.8 39.44 44.64 66.43q7.05 32.59-3.62 63.71-11.44 33.34-37.96 56.58c-25.92 22.71-58.56 34.11-92.93 34.28q-22.19 0.12-161.42 0.14-7.53 0-10.28-0.88c-6.45-2.07-10.54-7.69-11.4-14.58q-0.37-3.06 0.96-8.88c5.78-25.18 21.06-49.75 39.35-67.88 29.61-29.33 66.29-46.47 105.74-58.46q15.27-4.64 20.93-7.81c24.52-13.69 36.3-39.03 25.26-66.05-1.72-4.2-4.35-7.72-7.07-11.61q-14.33-20.47-28.19-39.73-0.01-0.01-0.01-0.02-0.01-0.01-0.01-0.03 0-0.01 0-0.03 0-0.01 0-0.03 0.01-0.04 0.01-0.06z"/>
	</g>
</svg>